<mxfile host="app.diagrams.net" modified="2023-05-15T09:13:35.131Z" agent="Mozilla/5.0 (Windows NT 10.0; Win64; x64) AppleWebKit/537.36 (KHTML, like Gecko) Chrome/112.0.0.0 Safari/537.36" etag="D3h447EggoBmfdM4KmoP" version="21.2.9" type="github" pages="2">
  <diagram name="Page-1" id="B8Tu_v0Rk38qln_Op_Ek">
    <mxGraphModel dx="610" dy="325" grid="1" gridSize="10" guides="1" tooltips="1" connect="1" arrows="1" fold="1" page="1" pageScale="1" pageWidth="1100" pageHeight="850" math="0" shadow="0">
      <root>
        <mxCell id="0" />
        <mxCell id="1" parent="0" />
        <mxCell id="q2mCySx_LU9u7ua_Dx6v-31" style="edgeStyle=orthogonalEdgeStyle;rounded=0;orthogonalLoop=1;jettySize=auto;html=1;entryX=0.007;entryY=0.254;entryDx=0;entryDy=0;dashed=1;dashPattern=8 8;entryPerimeter=0;" edge="1" parent="1" source="q2mCySx_LU9u7ua_Dx6v-1" target="q2mCySx_LU9u7ua_Dx6v-14">
          <mxGeometry relative="1" as="geometry">
            <mxPoint x="90" y="430" as="targetPoint" />
            <Array as="points">
              <mxPoint x="70" y="160" />
              <mxPoint x="70" y="322" />
            </Array>
          </mxGeometry>
        </mxCell>
        <mxCell id="q2mCySx_LU9u7ua_Dx6v-32" style="edgeStyle=orthogonalEdgeStyle;rounded=0;orthogonalLoop=1;jettySize=auto;html=1;exitX=0;exitY=0.5;exitDx=0;exitDy=0;entryX=0;entryY=0.25;entryDx=0;entryDy=0;dashed=1;" edge="1" parent="1" source="q2mCySx_LU9u7ua_Dx6v-1" target="q2mCySx_LU9u7ua_Dx6v-17">
          <mxGeometry relative="1" as="geometry">
            <Array as="points">
              <mxPoint x="70" y="160" />
              <mxPoint x="70" y="425" />
              <mxPoint x="110" y="425" />
            </Array>
          </mxGeometry>
        </mxCell>
        <mxCell id="q2mCySx_LU9u7ua_Dx6v-1" value="Trakdb" style="swimlane;fontStyle=0;childLayout=stackLayout;horizontal=1;startSize=30;horizontalStack=0;resizeParent=1;resizeParentMax=0;resizeLast=0;collapsible=1;marginBottom=0;whiteSpace=wrap;html=1;" vertex="1" parent="1">
          <mxGeometry x="90" y="130" width="180" height="60" as="geometry" />
        </mxCell>
        <mxCell id="q2mCySx_LU9u7ua_Dx6v-2" value="HN:trakdb[1:3].luht.scot.nhs" style="text;strokeColor=none;fillColor=none;align=left;verticalAlign=middle;spacingLeft=4;spacingRight=4;overflow=hidden;points=[[0,0.5],[1,0.5]];portConstraint=eastwest;rotatable=0;whiteSpace=wrap;html=1;" vertex="1" parent="q2mCySx_LU9u7ua_Dx6v-1">
          <mxGeometry y="30" width="180" height="30" as="geometry" />
        </mxCell>
        <mxCell id="q2mCySx_LU9u7ua_Dx6v-5" value="" style="rounded=1;whiteSpace=wrap;html=1;" vertex="1" parent="1">
          <mxGeometry x="460" y="40" width="120" height="60" as="geometry" />
        </mxCell>
        <mxCell id="q2mCySx_LU9u7ua_Dx6v-6" value="Live" style="text;html=1;strokeColor=none;fillColor=none;align=center;verticalAlign=middle;whiteSpace=wrap;rounded=0;" vertex="1" parent="1">
          <mxGeometry x="490" y="60" width="60" height="30" as="geometry" />
        </mxCell>
        <mxCell id="q2mCySx_LU9u7ua_Dx6v-8" value="Trak App Servers" style="swimlane;fontStyle=0;childLayout=stackLayout;horizontal=1;startSize=30;horizontalStack=0;resizeParent=1;resizeParentMax=0;resizeLast=0;collapsible=1;marginBottom=0;whiteSpace=wrap;html=1;" vertex="1" parent="1">
          <mxGeometry x="416" y="130" width="180" height="60" as="geometry" />
        </mxCell>
        <mxCell id="q2mCySx_LU9u7ua_Dx6v-9" value="HN:trakapp[1:6].luht.scot.nhs" style="text;strokeColor=none;fillColor=none;align=left;verticalAlign=middle;spacingLeft=4;spacingRight=4;overflow=hidden;points=[[0,0.5],[1,0.5]];portConstraint=eastwest;rotatable=0;whiteSpace=wrap;html=1;" vertex="1" parent="q2mCySx_LU9u7ua_Dx6v-8">
          <mxGeometry y="30" width="180" height="30" as="geometry" />
        </mxCell>
        <mxCell id="q2mCySx_LU9u7ua_Dx6v-14" value="trakdb2.luht.scot.nhs.uk" style="swimlane;fontStyle=0;childLayout=stackLayout;horizontal=1;startSize=30;horizontalStack=0;resizeParent=1;resizeParentMax=0;resizeLast=0;collapsible=1;marginBottom=0;whiteSpace=wrap;html=1;" vertex="1" parent="1">
          <mxGeometry x="110" y="307" width="140" height="60" as="geometry" />
        </mxCell>
        <mxCell id="q2mCySx_LU9u7ua_Dx6v-16" value="10.9.54.13" style="text;strokeColor=none;fillColor=none;align=left;verticalAlign=middle;spacingLeft=4;spacingRight=4;overflow=hidden;points=[[0,0.5],[1,0.5]];portConstraint=eastwest;rotatable=0;whiteSpace=wrap;html=1;" vertex="1" parent="q2mCySx_LU9u7ua_Dx6v-14">
          <mxGeometry y="30" width="140" height="30" as="geometry" />
        </mxCell>
        <mxCell id="q2mCySx_LU9u7ua_Dx6v-17" value="trakdb3.luht.scot.nhs.uk" style="swimlane;fontStyle=0;childLayout=stackLayout;horizontal=1;startSize=30;horizontalStack=0;resizeParent=1;resizeParentMax=0;resizeLast=0;collapsible=1;marginBottom=0;whiteSpace=wrap;html=1;" vertex="1" parent="1">
          <mxGeometry x="110" y="402" width="140" height="90" as="geometry" />
        </mxCell>
        <mxCell id="q2mCySx_LU9u7ua_Dx6v-24" value="10.9.54.14&lt;br&gt;" style="text;strokeColor=none;fillColor=none;align=left;verticalAlign=middle;spacingLeft=4;spacingRight=4;overflow=hidden;points=[[0,0.5],[1,0.5]];portConstraint=eastwest;rotatable=0;whiteSpace=wrap;html=1;" vertex="1" parent="q2mCySx_LU9u7ua_Dx6v-17">
          <mxGeometry y="30" width="140" height="30" as="geometry" />
        </mxCell>
        <mxCell id="q2mCySx_LU9u7ua_Dx6v-19" value="10.9.54.23" style="text;strokeColor=none;fillColor=none;align=left;verticalAlign=middle;spacingLeft=4;spacingRight=4;overflow=hidden;points=[[0,0.5],[1,0.5]];portConstraint=eastwest;rotatable=0;whiteSpace=wrap;html=1;" vertex="1" parent="q2mCySx_LU9u7ua_Dx6v-17">
          <mxGeometry y="60" width="140" height="30" as="geometry" />
        </mxCell>
        <mxCell id="q2mCySx_LU9u7ua_Dx6v-29" style="edgeStyle=orthogonalEdgeStyle;rounded=0;orthogonalLoop=1;jettySize=auto;html=1;exitX=0;exitY=0.5;exitDx=0;exitDy=0;dashed=1;dashPattern=8 8;entryX=0;entryY=0.25;entryDx=0;entryDy=0;" edge="1" parent="1" source="q2mCySx_LU9u7ua_Dx6v-2" target="q2mCySx_LU9u7ua_Dx6v-38">
          <mxGeometry relative="1" as="geometry">
            <mxPoint x="110" y="305" as="targetPoint" />
            <Array as="points">
              <mxPoint x="90" y="160" />
              <mxPoint x="70" y="160" />
              <mxPoint x="70" y="223" />
            </Array>
          </mxGeometry>
        </mxCell>
        <mxCell id="q2mCySx_LU9u7ua_Dx6v-38" value="trakdb1.luht.scot.nhs.uk" style="swimlane;fontStyle=0;childLayout=stackLayout;horizontal=1;startSize=30;horizontalStack=0;resizeParent=1;resizeParentMax=0;resizeLast=0;collapsible=1;marginBottom=0;whiteSpace=wrap;html=1;" vertex="1" parent="1">
          <mxGeometry x="110" y="208" width="140" height="60" as="geometry" />
        </mxCell>
        <mxCell id="q2mCySx_LU9u7ua_Dx6v-39" value="10.9.54.12" style="text;strokeColor=none;fillColor=none;align=left;verticalAlign=middle;spacingLeft=4;spacingRight=4;overflow=hidden;points=[[0,0.5],[1,0.5]];portConstraint=eastwest;rotatable=0;whiteSpace=wrap;html=1;" vertex="1" parent="q2mCySx_LU9u7ua_Dx6v-38">
          <mxGeometry y="30" width="140" height="30" as="geometry" />
        </mxCell>
        <mxCell id="q2mCySx_LU9u7ua_Dx6v-40" value="trakapp1.luht.scot.nhs.uk" style="swimlane;fontStyle=0;childLayout=stackLayout;horizontal=1;startSize=30;horizontalStack=0;resizeParent=1;resizeParentMax=0;resizeLast=0;collapsible=1;marginBottom=0;whiteSpace=wrap;html=1;" vertex="1" parent="1">
          <mxGeometry x="426" y="209" width="140" height="60" as="geometry" />
        </mxCell>
        <mxCell id="q2mCySx_LU9u7ua_Dx6v-41" value="10.9.54.15" style="text;strokeColor=none;fillColor=none;align=left;verticalAlign=middle;spacingLeft=4;spacingRight=4;overflow=hidden;points=[[0,0.5],[1,0.5]];portConstraint=eastwest;rotatable=0;whiteSpace=wrap;html=1;" vertex="1" parent="q2mCySx_LU9u7ua_Dx6v-40">
          <mxGeometry y="30" width="140" height="30" as="geometry" />
        </mxCell>
        <mxCell id="q2mCySx_LU9u7ua_Dx6v-44" value="trakapp3.luht.scot.nhs.uk" style="swimlane;fontStyle=0;childLayout=stackLayout;horizontal=1;startSize=30;horizontalStack=0;resizeParent=1;resizeParentMax=0;resizeLast=0;collapsible=1;marginBottom=0;whiteSpace=wrap;html=1;" vertex="1" parent="1">
          <mxGeometry x="426" y="354" width="140" height="60" as="geometry" />
        </mxCell>
        <mxCell id="q2mCySx_LU9u7ua_Dx6v-45" value="10.9.54.17" style="text;strokeColor=none;fillColor=none;align=left;verticalAlign=middle;spacingLeft=4;spacingRight=4;overflow=hidden;points=[[0,0.5],[1,0.5]];portConstraint=eastwest;rotatable=0;whiteSpace=wrap;html=1;" vertex="1" parent="q2mCySx_LU9u7ua_Dx6v-44">
          <mxGeometry y="30" width="140" height="30" as="geometry" />
        </mxCell>
        <mxCell id="q2mCySx_LU9u7ua_Dx6v-46" value="trakapp2.luht.scot.nhs.uk" style="swimlane;fontStyle=0;childLayout=stackLayout;horizontal=1;startSize=30;horizontalStack=0;resizeParent=1;resizeParentMax=0;resizeLast=0;collapsible=1;marginBottom=0;whiteSpace=wrap;html=1;" vertex="1" parent="1">
          <mxGeometry x="426" y="279" width="140" height="60" as="geometry" />
        </mxCell>
        <mxCell id="q2mCySx_LU9u7ua_Dx6v-47" value="10.9.54.16" style="text;strokeColor=none;fillColor=none;align=left;verticalAlign=middle;spacingLeft=4;spacingRight=4;overflow=hidden;points=[[0,0.5],[1,0.5]];portConstraint=eastwest;rotatable=0;whiteSpace=wrap;html=1;" vertex="1" parent="q2mCySx_LU9u7ua_Dx6v-46">
          <mxGeometry y="30" width="140" height="30" as="geometry" />
        </mxCell>
        <mxCell id="q2mCySx_LU9u7ua_Dx6v-48" value="trakapp5.luht.scot.nhs.uk" style="swimlane;fontStyle=0;childLayout=stackLayout;horizontal=1;startSize=30;horizontalStack=0;resizeParent=1;resizeParentMax=0;resizeLast=0;collapsible=1;marginBottom=0;whiteSpace=wrap;html=1;" vertex="1" parent="1">
          <mxGeometry x="426" y="499" width="140" height="60" as="geometry" />
        </mxCell>
        <mxCell id="q2mCySx_LU9u7ua_Dx6v-49" value="10.9.54.19" style="text;strokeColor=none;fillColor=none;align=left;verticalAlign=middle;spacingLeft=4;spacingRight=4;overflow=hidden;points=[[0,0.5],[1,0.5]];portConstraint=eastwest;rotatable=0;whiteSpace=wrap;html=1;" vertex="1" parent="q2mCySx_LU9u7ua_Dx6v-48">
          <mxGeometry y="30" width="140" height="30" as="geometry" />
        </mxCell>
        <mxCell id="q2mCySx_LU9u7ua_Dx6v-50" value="trakapp4.luht.scot.nhs.uk" style="swimlane;fontStyle=0;childLayout=stackLayout;horizontal=1;startSize=30;horizontalStack=0;resizeParent=1;resizeParentMax=0;resizeLast=0;collapsible=1;marginBottom=0;whiteSpace=wrap;html=1;" vertex="1" parent="1">
          <mxGeometry x="426" y="429" width="140" height="60" as="geometry" />
        </mxCell>
        <mxCell id="q2mCySx_LU9u7ua_Dx6v-51" value="10.9.54.18" style="text;strokeColor=none;fillColor=none;align=left;verticalAlign=middle;spacingLeft=4;spacingRight=4;overflow=hidden;points=[[0,0.5],[1,0.5]];portConstraint=eastwest;rotatable=0;whiteSpace=wrap;html=1;" vertex="1" parent="q2mCySx_LU9u7ua_Dx6v-50">
          <mxGeometry y="30" width="140" height="30" as="geometry" />
        </mxCell>
        <mxCell id="q2mCySx_LU9u7ua_Dx6v-52" value="trakapp6.luht.scot.nhs.uk" style="swimlane;fontStyle=0;childLayout=stackLayout;horizontal=1;startSize=30;horizontalStack=0;resizeParent=1;resizeParentMax=0;resizeLast=0;collapsible=1;marginBottom=0;whiteSpace=wrap;html=1;" vertex="1" parent="1">
          <mxGeometry x="426" y="569" width="140" height="60" as="geometry" />
        </mxCell>
        <mxCell id="q2mCySx_LU9u7ua_Dx6v-53" value="10.9.54.20" style="text;strokeColor=none;fillColor=none;align=left;verticalAlign=middle;spacingLeft=4;spacingRight=4;overflow=hidden;points=[[0,0.5],[1,0.5]];portConstraint=eastwest;rotatable=0;whiteSpace=wrap;html=1;" vertex="1" parent="q2mCySx_LU9u7ua_Dx6v-52">
          <mxGeometry y="30" width="140" height="30" as="geometry" />
        </mxCell>
        <mxCell id="q2mCySx_LU9u7ua_Dx6v-54" value="" style="endArrow=classic;startArrow=classic;html=1;rounded=0;entryX=0.002;entryY=-0.115;entryDx=0;entryDy=0;entryPerimeter=0;exitX=1;exitY=0.5;exitDx=0;exitDy=0;" edge="1" parent="1" source="q2mCySx_LU9u7ua_Dx6v-38" target="q2mCySx_LU9u7ua_Dx6v-41">
          <mxGeometry width="50" height="50" relative="1" as="geometry">
            <mxPoint x="230" y="312" as="sourcePoint" />
            <mxPoint x="280" y="262" as="targetPoint" />
          </mxGeometry>
        </mxCell>
        <mxCell id="q2mCySx_LU9u7ua_Dx6v-55" value="" style="endArrow=classic;startArrow=classic;html=1;rounded=0;entryX=0.002;entryY=0.09;entryDx=0;entryDy=0;entryPerimeter=0;" edge="1" parent="1" target="q2mCySx_LU9u7ua_Dx6v-51">
          <mxGeometry width="50" height="50" relative="1" as="geometry">
            <mxPoint x="250" y="242" as="sourcePoint" />
            <mxPoint x="280" y="262" as="targetPoint" />
          </mxGeometry>
        </mxCell>
        <mxCell id="q2mCySx_LU9u7ua_Dx6v-56" value="" style="endArrow=classic;startArrow=classic;html=1;rounded=0;exitX=1.017;exitY=0.123;exitDx=0;exitDy=0;exitPerimeter=0;entryX=-0.015;entryY=0;entryDx=0;entryDy=0;entryPerimeter=0;" edge="1" parent="1" source="q2mCySx_LU9u7ua_Dx6v-39" target="q2mCySx_LU9u7ua_Dx6v-45">
          <mxGeometry width="50" height="50" relative="1" as="geometry">
            <mxPoint x="266" y="314" as="sourcePoint" />
            <mxPoint x="316" y="264" as="targetPoint" />
          </mxGeometry>
        </mxCell>
        <mxCell id="q2mCySx_LU9u7ua_Dx6v-57" value="" style="endArrow=classic;startArrow=classic;html=1;rounded=0;exitX=1;exitY=0.5;exitDx=0;exitDy=0;entryX=-0.009;entryY=0.064;entryDx=0;entryDy=0;entryPerimeter=0;" edge="1" parent="1" source="q2mCySx_LU9u7ua_Dx6v-38" target="q2mCySx_LU9u7ua_Dx6v-47">
          <mxGeometry width="50" height="50" relative="1" as="geometry">
            <mxPoint x="297" y="312" as="sourcePoint" />
            <mxPoint x="347" y="262" as="targetPoint" />
          </mxGeometry>
        </mxCell>
        <mxCell id="q2mCySx_LU9u7ua_Dx6v-60" value="" style="endArrow=classic;startArrow=classic;html=1;rounded=0;exitX=0.995;exitY=0.226;exitDx=0;exitDy=0;exitPerimeter=0;entryX=0.035;entryY=0.09;entryDx=0;entryDy=0;entryPerimeter=0;" edge="1" parent="1" source="q2mCySx_LU9u7ua_Dx6v-39" target="q2mCySx_LU9u7ua_Dx6v-53">
          <mxGeometry width="50" height="50" relative="1" as="geometry">
            <mxPoint x="230" y="312" as="sourcePoint" />
            <mxPoint x="280" y="262" as="targetPoint" />
          </mxGeometry>
        </mxCell>
        <mxCell id="q2mCySx_LU9u7ua_Dx6v-61" value="" style="endArrow=classic;startArrow=classic;html=1;rounded=0;exitX=1.001;exitY=0.046;exitDx=0;exitDy=0;exitPerimeter=0;entryX=0;entryY=0.5;entryDx=0;entryDy=0;" edge="1" parent="1" source="q2mCySx_LU9u7ua_Dx6v-39" target="q2mCySx_LU9u7ua_Dx6v-48">
          <mxGeometry width="50" height="50" relative="1" as="geometry">
            <mxPoint x="230" y="312" as="sourcePoint" />
            <mxPoint x="280" y="262" as="targetPoint" />
          </mxGeometry>
        </mxCell>
        <mxCell id="q2mCySx_LU9u7ua_Dx6v-62" value="" style="endArrow=classic;startArrow=classic;html=1;rounded=0;" edge="1" parent="1">
          <mxGeometry width="50" height="50" relative="1" as="geometry">
            <mxPoint x="990" y="542" as="sourcePoint" />
            <mxPoint x="1040" y="492" as="targetPoint" />
          </mxGeometry>
        </mxCell>
        <mxCell id="q2mCySx_LU9u7ua_Dx6v-65" value="" style="endArrow=classic;startArrow=classic;html=1;rounded=0;entryX=0.057;entryY=0.038;entryDx=0;entryDy=0;entryPerimeter=0;" edge="1" parent="1" target="q2mCySx_LU9u7ua_Dx6v-53">
          <mxGeometry width="50" height="50" relative="1" as="geometry">
            <mxPoint x="250" y="432" as="sourcePoint" />
            <mxPoint x="690" y="267" as="targetPoint" />
          </mxGeometry>
        </mxCell>
        <mxCell id="q2mCySx_LU9u7ua_Dx6v-66" value="" style="endArrow=classic;startArrow=classic;html=1;rounded=0;exitX=1.028;exitY=0.118;exitDx=0;exitDy=0;exitPerimeter=0;" edge="1" parent="1" source="q2mCySx_LU9u7ua_Dx6v-24" target="q2mCySx_LU9u7ua_Dx6v-49">
          <mxGeometry width="50" height="50" relative="1" as="geometry">
            <mxPoint x="650" y="327" as="sourcePoint" />
            <mxPoint x="700" y="277" as="targetPoint" />
          </mxGeometry>
        </mxCell>
        <mxCell id="q2mCySx_LU9u7ua_Dx6v-67" value="" style="endArrow=classic;startArrow=classic;html=1;rounded=0;exitX=0.951;exitY=-0.036;exitDx=0;exitDy=0;exitPerimeter=0;entryX=0.029;entryY=-0.064;entryDx=0;entryDy=0;entryPerimeter=0;" edge="1" parent="1" source="q2mCySx_LU9u7ua_Dx6v-24" target="q2mCySx_LU9u7ua_Dx6v-51">
          <mxGeometry width="50" height="50" relative="1" as="geometry">
            <mxPoint x="660" y="337" as="sourcePoint" />
            <mxPoint x="710" y="287" as="targetPoint" />
          </mxGeometry>
        </mxCell>
        <mxCell id="q2mCySx_LU9u7ua_Dx6v-68" value="" style="endArrow=classic;startArrow=classic;html=1;rounded=0;exitX=0.995;exitY=0.373;exitDx=0;exitDy=0;exitPerimeter=0;entryX=0.029;entryY=0.051;entryDx=0;entryDy=0;entryPerimeter=0;" edge="1" parent="1" source="q2mCySx_LU9u7ua_Dx6v-17" target="q2mCySx_LU9u7ua_Dx6v-45">
          <mxGeometry width="50" height="50" relative="1" as="geometry">
            <mxPoint x="670" y="347" as="sourcePoint" />
            <mxPoint x="420" y="382" as="targetPoint" />
          </mxGeometry>
        </mxCell>
        <mxCell id="q2mCySx_LU9u7ua_Dx6v-69" value="" style="endArrow=classic;startArrow=classic;html=1;rounded=0;exitX=0.984;exitY=0.041;exitDx=0;exitDy=0;exitPerimeter=0;entryX=0.002;entryY=0.167;entryDx=0;entryDy=0;entryPerimeter=0;" edge="1" parent="1" source="q2mCySx_LU9u7ua_Dx6v-24" target="q2mCySx_LU9u7ua_Dx6v-47">
          <mxGeometry width="50" height="50" relative="1" as="geometry">
            <mxPoint x="270" y="542" as="sourcePoint" />
            <mxPoint x="320" y="492" as="targetPoint" />
          </mxGeometry>
        </mxCell>
        <mxCell id="q2mCySx_LU9u7ua_Dx6v-70" value="" style="endArrow=classic;startArrow=classic;html=1;rounded=0;exitX=1.017;exitY=-0.036;exitDx=0;exitDy=0;exitPerimeter=0;entryX=0.057;entryY=0.064;entryDx=0;entryDy=0;entryPerimeter=0;" edge="1" parent="1" source="q2mCySx_LU9u7ua_Dx6v-24" target="q2mCySx_LU9u7ua_Dx6v-41">
          <mxGeometry width="50" height="50" relative="1" as="geometry">
            <mxPoint x="260" y="549" as="sourcePoint" />
            <mxPoint x="420" y="232" as="targetPoint" />
          </mxGeometry>
        </mxCell>
        <mxCell id="q2mCySx_LU9u7ua_Dx6v-71" value="" style="endArrow=classic;startArrow=classic;html=1;rounded=0;exitX=0.984;exitY=-0.1;exitDx=0;exitDy=0;exitPerimeter=0;entryX=0.029;entryY=0.115;entryDx=0;entryDy=0;entryPerimeter=0;" edge="1" parent="1" source="q2mCySx_LU9u7ua_Dx6v-16" target="q2mCySx_LU9u7ua_Dx6v-53">
          <mxGeometry width="50" height="50" relative="1" as="geometry">
            <mxPoint x="700" y="377" as="sourcePoint" />
            <mxPoint x="750" y="327" as="targetPoint" />
          </mxGeometry>
        </mxCell>
        <mxCell id="q2mCySx_LU9u7ua_Dx6v-72" value="" style="endArrow=classic;startArrow=classic;html=1;rounded=0;exitX=0.968;exitY=0.028;exitDx=0;exitDy=0;exitPerimeter=0;entryX=0.035;entryY=-0.038;entryDx=0;entryDy=0;entryPerimeter=0;" edge="1" parent="1" source="q2mCySx_LU9u7ua_Dx6v-16" target="q2mCySx_LU9u7ua_Dx6v-49">
          <mxGeometry width="50" height="50" relative="1" as="geometry">
            <mxPoint x="710" y="387" as="sourcePoint" />
            <mxPoint x="760" y="337" as="targetPoint" />
          </mxGeometry>
        </mxCell>
        <mxCell id="q2mCySx_LU9u7ua_Dx6v-73" value="" style="endArrow=classic;startArrow=classic;html=1;rounded=0;exitX=0.979;exitY=-0.074;exitDx=0;exitDy=0;exitPerimeter=0;entryX=0.007;entryY=0.429;entryDx=0;entryDy=0;entryPerimeter=0;" edge="1" parent="1" source="q2mCySx_LU9u7ua_Dx6v-16" target="q2mCySx_LU9u7ua_Dx6v-50">
          <mxGeometry width="50" height="50" relative="1" as="geometry">
            <mxPoint x="720" y="397" as="sourcePoint" />
            <mxPoint x="770" y="347" as="targetPoint" />
          </mxGeometry>
        </mxCell>
        <mxCell id="q2mCySx_LU9u7ua_Dx6v-74" value="" style="endArrow=classic;startArrow=classic;html=1;rounded=0;exitX=1;exitY=0.5;exitDx=0;exitDy=0;" edge="1" parent="1" source="q2mCySx_LU9u7ua_Dx6v-14" target="q2mCySx_LU9u7ua_Dx6v-45">
          <mxGeometry width="50" height="50" relative="1" as="geometry">
            <mxPoint x="730" y="407" as="sourcePoint" />
            <mxPoint x="780" y="357" as="targetPoint" />
          </mxGeometry>
        </mxCell>
        <mxCell id="q2mCySx_LU9u7ua_Dx6v-75" value="" style="endArrow=classic;startArrow=classic;html=1;rounded=0;exitX=0.995;exitY=-0.1;exitDx=0;exitDy=0;exitPerimeter=0;entryX=0.007;entryY=0.192;entryDx=0;entryDy=0;entryPerimeter=0;" edge="1" parent="1" source="q2mCySx_LU9u7ua_Dx6v-16" target="q2mCySx_LU9u7ua_Dx6v-47">
          <mxGeometry width="50" height="50" relative="1" as="geometry">
            <mxPoint x="740" y="417" as="sourcePoint" />
            <mxPoint x="790" y="367" as="targetPoint" />
          </mxGeometry>
        </mxCell>
        <mxCell id="q2mCySx_LU9u7ua_Dx6v-76" value="" style="endArrow=classic;startArrow=classic;html=1;rounded=0;exitX=0.973;exitY=0.054;exitDx=0;exitDy=0;exitPerimeter=0;entryX=-0.009;entryY=-0.09;entryDx=0;entryDy=0;entryPerimeter=0;" edge="1" parent="1" source="q2mCySx_LU9u7ua_Dx6v-16" target="q2mCySx_LU9u7ua_Dx6v-41">
          <mxGeometry width="50" height="50" relative="1" as="geometry">
            <mxPoint x="750" y="427" as="sourcePoint" />
            <mxPoint x="800" y="377" as="targetPoint" />
          </mxGeometry>
        </mxCell>
        <mxCell id="q2mCySx_LU9u7ua_Dx6v-77" value="trakqas.luht.scot.nhs" style="swimlane;fontStyle=0;childLayout=stackLayout;horizontal=1;startSize=30;horizontalStack=0;resizeParent=1;resizeParentMax=0;resizeLast=0;collapsible=1;marginBottom=0;whiteSpace=wrap;html=1;" vertex="1" parent="1">
          <mxGeometry x="426" y="660" width="140" height="60" as="geometry" />
        </mxCell>
        <mxCell id="q2mCySx_LU9u7ua_Dx6v-79" value="trakapp1.luht.scot.nhs.uk" style="swimlane;fontStyle=0;childLayout=stackLayout;horizontal=1;startSize=30;horizontalStack=0;resizeParent=1;resizeParentMax=0;resizeLast=0;collapsible=1;marginBottom=0;whiteSpace=wrap;html=1;" vertex="1" parent="1">
          <mxGeometry x="920" y="610" width="140" height="60" as="geometry" />
        </mxCell>
        <mxCell id="q2mCySx_LU9u7ua_Dx6v-80" value="10.9.54.15" style="text;strokeColor=none;fillColor=none;align=left;verticalAlign=middle;spacingLeft=4;spacingRight=4;overflow=hidden;points=[[0,0.5],[1,0.5]];portConstraint=eastwest;rotatable=0;whiteSpace=wrap;html=1;" vertex="1" parent="q2mCySx_LU9u7ua_Dx6v-79">
          <mxGeometry y="30" width="140" height="30" as="geometry" />
        </mxCell>
      </root>
    </mxGraphModel>
  </diagram>
  <diagram id="dRIo23PamIkjkPu4lT5V" name="Page-2">
    <mxGraphModel dx="1434" dy="764" grid="1" gridSize="10" guides="1" tooltips="1" connect="1" arrows="1" fold="1" page="1" pageScale="1" pageWidth="827" pageHeight="1169" math="0" shadow="0">
      <root>
        <mxCell id="0" />
        <mxCell id="1" parent="0" />
      </root>
    </mxGraphModel>
  </diagram>
</mxfile>
